<svg xmlns="http://www.w3.org/2000/svg" xmlns:xlink="http://www.w3.org/1999/xlink" width="600" zoomAndPan="magnify" viewBox="0 0 450 149.999998" height="200" preserveAspectRatio="xMidYMid meet" version="1.0"><defs><g/><clipPath id="e4146703c6"><path d="M 6.914062 16.199219 L 122.414062 16.199219 L 122.414062 133.949219 L 6.914062 133.949219 Z M 6.914062 16.199219 " clip-rule="nonzero"/></clipPath><clipPath id="1c9603b815"><path d="M 6.914062 16.199219 L 49 16.199219 L 49 58 L 6.914062 58 Z M 6.914062 16.199219 " clip-rule="nonzero"/></clipPath><clipPath id="519abe2147"><path d="M 48 16.199219 L 108 16.199219 L 108 133.949219 L 48 133.949219 Z M 48 16.199219 " clip-rule="nonzero"/></clipPath><clipPath id="f0e4703405"><path d="M 107 33 L 122.414062 33 L 122.414062 49 L 107 49 Z M 107 33 " clip-rule="nonzero"/></clipPath></defs><rect x="-45" width="540" fill="#ffffff" y="-15" height="179.999997" fill-opacity="1"/><rect x="-45" width="540" fill="#ffffff" y="-15" height="179.999997" fill-opacity="1"/><g fill="#ffffff" fill-opacity="0.4"><g transform="translate(122.518189, 115.281809)"><g><path d="M 66.722656 -54.898438 C 66.722656 -67.109375 59.511719 -76.914062 39.804688 -76.914062 L 6.730469 -76.914062 L 6.730469 0 L 39.804688 0 C 60.089844 0 66.722656 -13.074219 66.722656 -25.191406 C 66.722656 -30.863281 65.183594 -36.054688 61.53125 -39.996094 C 65.28125 -43.839844 66.722656 -49.128906 66.722656 -54.898438 Z M 21.152344 -62.589844 L 44.804688 -62.589844 C 49.320312 -62.589844 52.398438 -58.648438 52.398438 -54.898438 C 52.398438 -51.628906 49.800781 -47.207031 44.804688 -47.207031 L 21.152344 -47.207031 Z M 43.359375 -14.421875 L 21.152344 -14.421875 L 21.152344 -32.882812 L 43.359375 -32.882812 C 47.785156 -32.882812 52.398438 -29.996094 52.398438 -23.652344 C 52.398438 -17.304688 47.589844 -14.421875 43.359375 -14.421875 Z M 43.359375 -14.421875 "/></g></g></g><g fill="#ffffff" fill-opacity="0.4"><g transform="translate(195.966149, 115.281809)"><g><path d="M 21.054688 -14.324219 L 21.054688 -76.914062 L 6.730469 -76.914062 L 6.730469 0 L 51.246094 0 L 51.246094 -14.324219 Z M 21.054688 -14.324219 "/></g></g></g><g fill="#ffffff" fill-opacity="0.4"><g transform="translate(253.936196, 115.281809)"><g><path d="M 42.6875 -77.875 C 20.960938 -77.875 3.363281 -60.28125 3.363281 -38.554688 C 3.363281 -16.824219 20.960938 0.769531 42.6875 0.769531 C 64.417969 0.769531 82.011719 -16.824219 82.011719 -38.554688 C 82.011719 -60.28125 64.417969 -77.875 42.6875 -77.875 Z M 42.6875 -63.167969 C 56.339844 -63.167969 65.953125 -52.109375 65.953125 -38.554688 C 65.953125 -24.996094 56.339844 -13.941406 42.6875 -13.941406 C 29.132812 -13.941406 19.515625 -24.996094 19.515625 -38.554688 C 19.515625 -52.109375 29.132812 -63.167969 42.6875 -63.167969 Z M 42.6875 -63.167969 "/></g></g></g><g fill="#ffffff" fill-opacity="0.4"><g transform="translate(339.305018, 115.281809)"><g><path d="M 84.894531 -44.898438 L 49.035156 -44.898438 L 49.035156 -30.1875 L 68.070312 -30.1875 C 65.089844 -20.671875 56.820312 -13.75 46.054688 -13.75 C 32.496094 -13.75 22.882812 -24.804688 22.882812 -38.359375 C 22.882812 -51.917969 32.496094 -62.972656 46.054688 -62.972656 C 50.859375 -62.972656 55.1875 -61.628906 58.648438 -59.222656 L 69.414062 -69.992188 C 62.878906 -74.800781 54.800781 -77.683594 46.054688 -77.683594 C 24.324219 -77.683594 6.730469 -60.089844 6.730469 -38.359375 C 6.730469 -16.632812 24.324219 0.960938 46.054688 0.960938 C 67.78125 0.960938 85.375 -16.632812 85.375 -38.359375 C 85.375 -40.574219 85.183594 -42.785156 84.894531 -44.898438 Z M 84.894531 -44.898438 "/></g></g></g><g fill="#737373" fill-opacity="1"><g transform="translate(128.128254, 113.12831)"><g><path d="M 66.722656 -54.898438 C 66.722656 -67.109375 59.511719 -76.914062 39.804688 -76.914062 L 6.730469 -76.914062 L 6.730469 0 L 39.804688 0 C 60.089844 0 66.722656 -13.074219 66.722656 -25.191406 C 66.722656 -30.863281 65.183594 -36.054688 61.53125 -39.996094 C 65.28125 -43.839844 66.722656 -49.128906 66.722656 -54.898438 Z M 21.152344 -62.589844 L 44.804688 -62.589844 C 49.320312 -62.589844 52.398438 -58.648438 52.398438 -54.898438 C 52.398438 -51.628906 49.800781 -47.207031 44.804688 -47.207031 L 21.152344 -47.207031 Z M 43.359375 -14.421875 L 21.152344 -14.421875 L 21.152344 -32.882812 L 43.359375 -32.882812 C 47.785156 -32.882812 52.398438 -29.996094 52.398438 -23.652344 C 52.398438 -17.304688 47.589844 -14.421875 43.359375 -14.421875 Z M 43.359375 -14.421875 "/></g></g></g><g fill="#737373" fill-opacity="1"><g transform="translate(201.576213, 113.12831)"><g><path d="M 21.054688 -14.324219 L 21.054688 -76.914062 L 6.730469 -76.914062 L 6.730469 0 L 51.246094 0 L 51.246094 -14.324219 Z M 21.054688 -14.324219 "/></g></g></g><g fill="#737373" fill-opacity="1"><g transform="translate(259.546261, 113.12831)"><g><path d="M 42.6875 -77.875 C 20.960938 -77.875 3.363281 -60.28125 3.363281 -38.554688 C 3.363281 -16.824219 20.960938 0.769531 42.6875 0.769531 C 64.417969 0.769531 82.011719 -16.824219 82.011719 -38.554688 C 82.011719 -60.28125 64.417969 -77.875 42.6875 -77.875 Z M 42.6875 -63.167969 C 56.339844 -63.167969 65.953125 -52.109375 65.953125 -38.554688 C 65.953125 -24.996094 56.339844 -13.941406 42.6875 -13.941406 C 29.132812 -13.941406 19.515625 -24.996094 19.515625 -38.554688 C 19.515625 -52.109375 29.132812 -63.167969 42.6875 -63.167969 Z M 42.6875 -63.167969 "/></g></g></g><g fill="#737373" fill-opacity="1"><g transform="translate(344.915082, 113.12831)"><g><path d="M 84.894531 -44.898438 L 49.035156 -44.898438 L 49.035156 -30.1875 L 68.070312 -30.1875 C 65.089844 -20.671875 56.820312 -13.75 46.054688 -13.75 C 32.496094 -13.75 22.882812 -24.804688 22.882812 -38.359375 C 22.882812 -51.917969 32.496094 -62.972656 46.054688 -62.972656 C 50.859375 -62.972656 55.1875 -61.628906 58.648438 -59.222656 L 69.414062 -69.992188 C 62.878906 -74.800781 54.800781 -77.683594 46.054688 -77.683594 C 24.324219 -77.683594 6.730469 -60.089844 6.730469 -38.359375 C 6.730469 -16.632812 24.324219 0.960938 46.054688 0.960938 C 67.78125 0.960938 85.375 -16.632812 85.375 -38.359375 C 85.375 -40.574219 85.183594 -42.785156 84.894531 -44.898438 Z M 84.894531 -44.898438 "/></g></g></g><g clip-path="url(#e4146703c6)"><path fill="#0991ff" d="M 48.648438 57.808594 L 48.648438 16.199219 L 6.917969 16.199219 Z M 122.414062 48.195312 L 107.390625 33.394531 L 86.5 54.152344 L 48.648438 16.199219 L 48.648438 133.949219 L 107.390625 75.050781 L 107.390625 48.195312 Z M 122.414062 48.195312 " fill-opacity="1" fill-rule="nonzero"/></g><g clip-path="url(#1c9603b815)"><path fill="#62ccfd" d="M 6.917969 16.199219 L 48.648438 57.808594 L 48.648438 16.199219 L 6.917969 16.199219 " fill-opacity="1" fill-rule="nonzero"/></g><g clip-path="url(#519abe2147)"><path fill="#0991ff" d="M 48.648438 133.949219 L 48.648438 16.199219 L 107.390625 75.050781 L 48.648438 133.949219 " fill-opacity="1" fill-rule="nonzero"/></g><path fill="#62ccfd" d="M 107.390625 33.394531 L 107.390625 75.050781 L 86.5 54.152344 Z M 107.390625 33.394531 " fill-opacity="1" fill-rule="nonzero"/><g clip-path="url(#f0e4703405)"><path fill="#0991ff" d="M 107.390625 33.394531 L 107.390625 48.195312 L 122.414062 48.195312 Z M 107.390625 33.394531 " fill-opacity="1" fill-rule="nonzero"/></g></svg>